<?xml version="1.0" standalone="no"?>
<svg xmlns:xlink="http://www.w3.org/1999/xlink" id="wave" style="transform:rotate(180deg); transition: 0.3s" viewBox="0 0 1440 180" version="1.1" xmlns="http://www.w3.org/2000/svg"><defs><linearGradient id="sw-gradient-0" x1="0" x2="0" y1="1" y2="0"><stop stop-color="rgba(18, 18, 18, 1)" offset="0%"/><stop stop-color="rgba(18, 18, 18, 1)" offset="100%"/></linearGradient></defs><path style="transform:translate(0, 0px); opacity:1" fill="url(#sw-gradient-0)" d="M0,54L26.7,60C53.3,66,107,78,160,81C213.3,84,267,78,320,69C373.3,60,427,48,480,39C533.3,30,587,24,640,42C693.3,60,747,102,800,117C853.3,132,907,120,960,105C1013.3,90,1067,72,1120,54C1173.3,36,1227,18,1280,27C1333.3,36,1387,72,1440,75C1493.3,78,1547,48,1600,42C1653.3,36,1707,54,1760,75C1813.3,96,1867,120,1920,108C1973.3,96,2027,48,2080,45C2133.3,42,2187,84,2240,108C2293.3,132,2347,138,2400,132C2453.3,126,2507,108,2560,90C2613.3,72,2667,54,2720,60C2773.3,66,2827,96,2880,105C2933.3,114,2987,102,3040,99C3093.3,96,3147,102,3200,99C3253.3,96,3307,84,3360,84C3413.3,84,3467,96,3520,108C3573.3,120,3627,132,3680,126C3733.3,120,3787,96,3813,84L3840,72L3840,180L3813.3,180C3786.7,180,3733,180,3680,180C3626.7,180,3573,180,3520,180C3466.7,180,3413,180,3360,180C3306.7,180,3253,180,3200,180C3146.7,180,3093,180,3040,180C2986.7,180,2933,180,2880,180C2826.7,180,2773,180,2720,180C2666.7,180,2613,180,2560,180C2506.7,180,2453,180,2400,180C2346.7,180,2293,180,2240,180C2186.7,180,2133,180,2080,180C2026.7,180,1973,180,1920,180C1866.7,180,1813,180,1760,180C1706.7,180,1653,180,1600,180C1546.7,180,1493,180,1440,180C1386.7,180,1333,180,1280,180C1226.7,180,1173,180,1120,180C1066.7,180,1013,180,960,180C906.7,180,853,180,800,180C746.7,180,693,180,640,180C586.7,180,533,180,480,180C426.7,180,373,180,320,180C266.7,180,213,180,160,180C106.7,180,53,180,27,180L0,180Z"/></svg>